<?xml version="1.0" encoding="UTF-8"?>
<!DOCTYPE svg  PUBLIC '-//W3C//DTD SVG 1.1//EN'  'http://www.w3.org/Graphics/SVG/1.1/DTD/svg11.dtd'>
<svg enable-background="new 0 0 425.9 268.9" version="1.1" viewBox="0 0 425.9 268.9" xml:space="preserve" xmlns="http://www.w3.org/2000/svg" xmlns:xlink="http://www.w3.org/1999/xlink">
<symbol id="v" viewBox="0 -43.35 5.3 43.35">
		<path d="m4.25 0v-42.25h0.15l0.9-0.6-1.05-0.35-4.25-0.15v43.25l4.25 0.1zm-1.55-19.2c-0.3 0-0.55-0.1-0.75-0.3s-0.3-0.45-0.3-0.75v-2.4c0-0.3 0.1-0.55 0.3-0.75s0.45-0.3 0.75-0.3 0.55 0.1 0.75 0.3 0.3 0.45 0.3 0.75v2.4c0 0.3-0.1 0.55-0.3 0.75s-0.45 0.3-0.75 0.3zm0.75-6.35c-0.2 0.233-0.45 0.35-0.75 0.35s-0.55-0.117-0.75-0.35c-0.2-0.2-0.3-0.45-0.3-0.75v-2.4c0-0.3 0.1-0.55 0.3-0.75s0.45-0.3 0.75-0.3 0.55 0.1 0.75 0.3 0.3 0.45 0.3 0.75v2.4c0 0.3-0.1 0.55-0.3 0.75zm0-6c-0.2 0.2-0.45 0.3-0.75 0.3s-0.55-0.1-0.75-0.3c-0.2-0.233-0.3-0.483-0.3-0.75v-2.45c0-0.267 0.1-0.517 0.3-0.75 0.2-0.2 0.45-0.3 0.75-0.3s0.55 0.1 0.75 0.3c0.2 0.233 0.3 0.483 0.3 0.75v2.45c0 0.267-0.1 0.517-0.3 0.75zm-0.75-5.85c-0.3 0-0.55-0.1-0.75-0.3-0.2-0.233-0.3-0.483-0.3-0.75v-2.45c0-0.267 0.1-0.517 0.3-0.75 0.2-0.2 0.45-0.3 0.75-0.3s0.55 0.1 0.75 0.3c0.2 0.233 0.3 0.483 0.3 0.75v2.45c0 0.267-0.1 0.517-0.3 0.75-0.2 0.2-0.45 0.3-0.75 0.3z" clip-rule="evenodd" fill-rule="evenodd"/>
</symbol>
<symbol id="w" viewBox="0 -43.35 5.25 43.35">
		<path d="m3.65-38.45c0 0.267-0.1 0.517-0.3 0.75-0.233 0.2-0.5 0.3-0.8 0.3-0.267 0-0.517-0.1-0.75-0.3-0.2-0.233-0.3-0.483-0.3-0.75v-2.45c0-0.267 0.1-0.517 0.3-0.75 0.233-0.2 0.483-0.3 0.75-0.3 0.3 0 0.567 0.1 0.8 0.3 0.2 0.233 0.3 0.483 0.3 0.75v2.45zm-0.3 6.9c-0.233 0.2-0.5 0.3-0.8 0.3-0.267 0-0.517-0.1-0.75-0.3-0.2-0.233-0.3-0.483-0.3-0.75v-2.45c0-0.267 0.1-0.517 0.3-0.75 0.233-0.2 0.483-0.3 0.75-0.3 0.3 0 0.567 0.1 0.8 0.3 0.2 0.233 0.3 0.483 0.3 0.75v2.45c0 0.267-0.1 0.517-0.3 0.75zm0 6c-0.233 0.233-0.5 0.35-0.8 0.35-0.267 0-0.517-0.117-0.75-0.35-0.2-0.2-0.3-0.45-0.3-0.75v-2.4c0-0.3 0.1-0.55 0.3-0.75 0.233-0.2 0.483-0.3 0.75-0.3 0.3 0 0.567 0.1 0.8 0.3 0.2 0.2 0.3 0.45 0.3 0.75v2.4c0 0.3-0.1 0.55-0.3 0.75zm0.3 5.3c0 0.3-0.1 0.55-0.3 0.75-0.233 0.2-0.5 0.3-0.8 0.3-0.267 0-0.517-0.1-0.75-0.3-0.2-0.2-0.3-0.45-0.3-0.75v-2.4c0-0.3 0.1-0.55 0.3-0.75 0.233-0.2 0.483-0.3 0.75-0.3 0.3 0 0.567 0.1 0.8 0.3 0.2 0.2 0.3 0.45 0.3 0.75v2.4zm-2.6 20.25l4.2-0.1v-43.25l-4.2 0.15-1.05 0.35 0.85 0.6h0.2v42.25z" clip-rule="evenodd" fill-rule="evenodd"/>
</symbol>
<symbol id="x" viewBox="0 -6.9 285.7 6.9">
			<radialGradient id="ah" cx="142.85" cy="-3.4502" r="124.65" gradientTransform="matrix(1 0 0 -.1558 0 -3.9873)" gradientUnits="userSpaceOnUse">
			<stop stop-opacity="0" offset=".2118"/>
			<stop stop-opacity=".651" offset=".8118"/>
			<stop stop-opacity=".9333" offset="1"/>
		</radialGradient>
		<path d="m285.7-5.4h-159.15c-22.33 0-64.417-0.5-126.25-1.5l-0.3 4.6c68.2 1.133 109.1 1.7 122.7 1.7s60.05 0.2 139.35 0.6h23l0.65-5.4z" clip-rule="evenodd" fill="url(#ah)" fill-rule="evenodd"/>
</symbol>
<symbol id="y" viewBox="0 -5.7 3.3 5.7">
			<linearGradient id="ai" x1="-67.274" x2="-64.174" y1="-16033" y2="-16033" gradientTransform="matrix(.00032258 -1 1 -.001 16034 -85.058)" gradientUnits="userSpaceOnUse">
			<stop offset="0"/>
			<stop stop-opacity=".2392" offset=".8941"/>
			<stop stop-opacity="0" offset="1"/>
		</linearGradient>
		<polygon points="3.3 -5.7 0 -5.7 0 0 3.3 0" clip-rule="evenodd" fill="url(#ai)" fill-rule="evenodd"/>
</symbol>
<symbol id="z" viewBox="0 -14.3 3.25 14.3">
		<linearGradient id="aj" x1="1.2627" x2="2.9377" y1="-7.1499" y2="-7.1499" gradientUnits="userSpaceOnUse">
			<stop offset="0"/>
			<stop stop-opacity=".2392" offset=".8941"/>
			<stop stop-opacity="0" offset="1"/>
		</linearGradient>
		<polygon points="3.25 -14.3 0 -14.3 0 0 3.25 0" clip-rule="evenodd" fill="url(#aj)" fill-rule="evenodd"/>
</symbol>
<symbol id="aa" viewBox="0 -17.55 247.6 17.55">
			<linearGradient id="ak" x1="-63.682" x2="-54.107" y1="-15912" y2="-15912" gradientTransform="matrix(.00010444 -1 1 -.001 16036 -85.057)" gradientUnits="userSpaceOnUse">
			<stop offset="0"/>
			<stop stop-opacity="0" offset="1"/>
		</linearGradient>
		<polygon points="247.6 -17.55 0 -17.55 0 0 247.6 0" clip-rule="evenodd" fill="url(#ak)" fill-rule="evenodd"/>
</symbol>
<symbol id="ab" viewBox="0 -5.7 3.3 5.7">
		<linearGradient id="al" x1="1.6499" x2="1.6499" y1="-4.8501" y2="-1.7501" gradientUnits="userSpaceOnUse">
			<stop offset="0"/>
			<stop stop-opacity=".2392" offset=".8941"/>
			<stop stop-opacity="0" offset="1"/>
		</linearGradient>
		<polygon points="0 -5.7 0 0 3.3 0 3.3 -5.7" clip-rule="evenodd" fill="url(#al)" fill-rule="evenodd"/>
</symbol>
<symbol id="ac" viewBox="0 -15.4 3.3 15.4">
		<linearGradient id="am" x1="2.0376" x2=".3626" y1="-7.7002" y2="-7.7002" gradientUnits="userSpaceOnUse">
			<stop offset="0"/>
			<stop stop-opacity=".2392" offset=".8941"/>
			<stop stop-opacity="0" offset="1"/>
		</linearGradient>
		<polygon points="0 -15.4 0 0 3.3 0 3.3 -15.4" clip-rule="evenodd" fill="url(#am)" fill-rule="evenodd"/>
</symbol>
<symbol id="ad">
</symbol>
	<rect x="69.7" y="198.2" width="286.5" height="70" clip-rule="evenodd" fill-opacity="0"/>
		<use transform="matrix(1 0 0 -1 90.8 153.55)" y="-17.55" width="247.6" height="17.55" enable-background="new" opacity=".1602" xlink:href="#aa"/>
		<use transform="matrix(1 0 0 -1 91.1 154.55)" y="-43.35" width="5.25" height="43.35" enable-background="new" opacity=".3008" xlink:href="#w"/>
	<path d="m94.35 192.35c0-0.267-0.1-0.517-0.3-0.75-0.2-0.199-0.45-0.3-0.75-0.3-0.267 0-0.517 0.101-0.75 0.3-0.2 0.233-0.3 0.483-0.3 0.75v2.45c0 0.267 0.1 0.517 0.3 0.75 0.233 0.2 0.483 0.3 0.75 0.3 0.3 0 0.55-0.1 0.75-0.3 0.2-0.233 0.3-0.483 0.3-0.75v-2.45zm-1.8-6.9c-0.2 0.2-0.3 0.45-0.3 0.75v2.399c0 0.301 0.1 0.551 0.3 0.75 0.233 0.2 0.483 0.301 0.75 0.301 0.3 0 0.55-0.101 0.75-0.301 0.2-0.199 0.3-0.449 0.3-0.75v-2.4c0-0.3-0.1-0.55-0.3-0.75s-0.45-0.3-0.75-0.3c-0.267 0-0.517 0.1-0.75 0.3zm1.8-5.3c0-0.267-0.1-0.517-0.3-0.75-0.2-0.2-0.45-0.301-0.75-0.301-0.267 0-0.517 0.101-0.75 0.301-0.2 0.233-0.3 0.483-0.3 0.75v2.449c0 0.267 0.1 0.517 0.3 0.75 0.233 0.2 0.483 0.301 0.75 0.301 0.3 0 0.55-0.101 0.75-0.301 0.2-0.233 0.3-0.483 0.3-0.75v-2.45zm0-6c0-0.301-0.1-0.551-0.3-0.75-0.2-0.233-0.45-0.351-0.75-0.351-0.267 0-0.517 0.117-0.75 0.351-0.2 0.199-0.3 0.449-0.3 0.75v2.399c0 0.3 0.1 0.55 0.3 0.75 0.233 0.2 0.483 0.3 0.75 0.3 0.3 0 0.55-0.1 0.75-0.3s0.3-0.45 0.3-0.75v-2.4zm-2.6-20.3h3.9v43.25h-3.9v-43.25z" clip-rule="evenodd" fill="#8F887B" fill-rule="evenodd"/>
	<linearGradient id="an" x1="91.775" x2="95.625" y1="175.47" y2="175.47" gradientUnits="userSpaceOnUse">
		<stop stop-opacity=".5137" offset="0"/>
		<stop stop-opacity="0" offset=".4784"/>
	</linearGradient>
	<path d="m94.35 192.35c0-0.267-0.1-0.517-0.3-0.75-0.2-0.199-0.45-0.3-0.75-0.3-0.267 0-0.517 0.101-0.75 0.3-0.2 0.233-0.3 0.483-0.3 0.75v2.45c0 0.267 0.1 0.517 0.3 0.75 0.233 0.2 0.483 0.3 0.75 0.3 0.3 0 0.55-0.1 0.75-0.3 0.2-0.233 0.3-0.483 0.3-0.75v-2.45zm-1.8-6.9c-0.2 0.2-0.3 0.45-0.3 0.75v2.399c0 0.301 0.1 0.551 0.3 0.75 0.233 0.2 0.483 0.301 0.75 0.301 0.3 0 0.55-0.101 0.75-0.301 0.2-0.199 0.3-0.449 0.3-0.75v-2.4c0-0.3-0.1-0.55-0.3-0.75s-0.45-0.3-0.75-0.3c-0.267 0-0.517 0.1-0.75 0.3zm1.8-5.3c0-0.267-0.1-0.517-0.3-0.75-0.2-0.2-0.45-0.301-0.75-0.301-0.267 0-0.517 0.101-0.75 0.301-0.2 0.233-0.3 0.483-0.3 0.75v2.449c0 0.267 0.1 0.517 0.3 0.75 0.233 0.2 0.483 0.301 0.75 0.301 0.3 0 0.55-0.101 0.75-0.301 0.2-0.233 0.3-0.483 0.3-0.75v-2.45zm0-6c0-0.301-0.1-0.551-0.3-0.75-0.2-0.233-0.45-0.351-0.75-0.351-0.267 0-0.517 0.117-0.75 0.351-0.2 0.199-0.3 0.449-0.3 0.75v2.399c0 0.3 0.1 0.55 0.3 0.75 0.233 0.2 0.483 0.3 0.75 0.3 0.3 0 0.55-0.1 0.75-0.3s0.3-0.45 0.3-0.75v-2.4zm-2.6-20.3h3.9v43.25h-3.9v-43.25z" clip-rule="evenodd" fill="url(#an)" fill-rule="evenodd"/>
		<linearGradient id="ao" x1="-95.7" x2="-93.6" y1="-175.47" y2="-175.47" gradientTransform="scale(-1)" gradientUnits="userSpaceOnUse">
		<stop stop-opacity=".5137" offset=".1412"/>
		<stop stop-opacity="0" offset=".7373"/>
	</linearGradient>
	<path d="m94.35 192.35c0-0.267-0.1-0.517-0.3-0.75-0.2-0.199-0.45-0.3-0.75-0.3-0.267 0-0.517 0.101-0.75 0.3-0.2 0.233-0.3 0.483-0.3 0.75v2.45c0 0.267 0.1 0.517 0.3 0.75 0.233 0.2 0.483 0.3 0.75 0.3 0.3 0 0.55-0.1 0.75-0.3 0.2-0.233 0.3-0.483 0.3-0.75v-2.45zm-1.8-6.9c-0.2 0.2-0.3 0.45-0.3 0.75v2.399c0 0.301 0.1 0.551 0.3 0.75 0.233 0.2 0.483 0.301 0.75 0.301 0.3 0 0.55-0.101 0.75-0.301 0.2-0.199 0.3-0.449 0.3-0.75v-2.4c0-0.3-0.1-0.55-0.3-0.75s-0.45-0.3-0.75-0.3c-0.267 0-0.517 0.1-0.75 0.3zm1.8-5.3c0-0.267-0.1-0.517-0.3-0.75-0.2-0.2-0.45-0.301-0.75-0.301-0.267 0-0.517 0.101-0.75 0.301-0.2 0.233-0.3 0.483-0.3 0.75v2.449c0 0.267 0.1 0.517 0.3 0.75 0.233 0.2 0.483 0.301 0.75 0.301 0.3 0 0.55-0.101 0.75-0.301 0.2-0.233 0.3-0.483 0.3-0.75v-2.45zm0-6c0-0.301-0.1-0.551-0.3-0.75-0.2-0.233-0.45-0.351-0.75-0.351-0.267 0-0.517 0.117-0.75 0.351-0.2 0.199-0.3 0.449-0.3 0.75v2.399c0 0.3 0.1 0.55 0.3 0.75 0.233 0.2 0.483 0.3 0.75 0.3 0.3 0 0.55-0.1 0.75-0.3s0.3-0.45 0.3-0.75v-2.4zm-2.6-20.3h3.9v43.25h-3.9v-43.25z" clip-rule="evenodd" fill="url(#ao)" fill-rule="evenodd"/>
	<rect x="94.85" y="153.85" width="1.2" height="43.5" clip-rule="evenodd" fill="#A59E8E" fill-rule="evenodd"/>
	<rect x="90.95" y="153.85" width=".6" height="43.25" clip-rule="evenodd" fill="#D5CCB7" fill-rule="evenodd"/>
	<rect x="91.1" y="153.85" width=".7" height="43.551" clip-rule="evenodd" fill="#A59E8E" fill-rule="evenodd"/>
		<use transform="matrix(1 0 0 -1 92.95 156.55)" y="-14.3" width="3.25" height="14.3" enable-background="new" opacity=".5703" xlink:href="#z"/>
		<use transform="matrix(1 0 0 -1 91.7 168.05)" y="-5.7" width="3.3" height="5.7" enable-background="new" opacity=".5703" xlink:href="#y"/>
	<path d="m91.95 166.45c-0.367-2.767-0.8-4.467-1.3-5.101-0.3-0.399-0.983-1.6-2.05-3.6l-1.5-2.9 7.4-5.8 0.55 21.75-2-2.25-1.1-2.1z" clip-rule="evenodd" fill="#57534B" fill-rule="evenodd"/>
	<path d="m86.7 161.25l-1.65-0.7 2.45-2.575c-0.306-0.242-0.473-0.384-0.5-0.425-0.033-0.066 0.267-0.066 0.9 0l-0.4 0.425c0.445 0.337 1.178 0.879 2.2 1.625 1.533 1.134 2.883 3.351 4.05 6.65 0.6 1.634 1.033 3.15 1.3 4.55l-3.4 0.05c-0.066-1.6-0.6-3.416-1.6-5.449-0.933-1.9-2.05-3.28-3.35-4.15z" clip-rule="evenodd" fill="#787367" fill-rule="evenodd"/>
	<path d="m83.8 153.7l6.15 0.7 0.25 5.6c-0.167-0.066-0.667-0.1-1.5-0.1-0.7 0-1.517 0.116-2.45 0.35l-1.2 0.3-1.25-6.85z" clip-rule="evenodd" fill="#8F887B" fill-rule="evenodd"/>
	<path d="m94.3 154.95v9.2c-0.633-1.067-1.316-2.034-2.05-2.9l-1.3-1.8v-2.55l3.35-1.95z" clip-rule="evenodd" fill="#47443D" fill-rule="evenodd"/>
		<use transform="matrix(1 0 0 -1 334.25 154.55)" y="-43.35" width="5.3" height="43.35" enable-background="new" opacity=".3008" xlink:href="#v"/>
	<path d="m338.85 153.85v43.25h-3.85v-43.25h3.85zm-0.8 19.55c-0.2-0.233-0.45-0.351-0.75-0.351-0.267 0-0.517 0.117-0.75 0.351-0.2 0.199-0.3 0.449-0.3 0.75v2.399c0 0.3 0.1 0.55 0.3 0.75 0.233 0.2 0.483 0.3 0.75 0.3 0.3 0 0.55-0.1 0.75-0.3s0.3-0.45 0.3-0.75v-2.399c0-0.3-0.1-0.55-0.3-0.75zm0 6c-0.2-0.2-0.45-0.301-0.75-0.301-0.267 0-0.517 0.101-0.75 0.301-0.2 0.233-0.3 0.483-0.3 0.75v2.449c0 0.267 0.1 0.517 0.3 0.75 0.233 0.2 0.483 0.301 0.75 0.301 0.3 0 0.55-0.101 0.75-0.301 0.2-0.233 0.3-0.483 0.3-0.75v-2.449c0-0.27-0.1-0.52-0.3-0.75zm0 6.05c-0.2-0.2-0.45-0.3-0.75-0.3-0.267 0-0.517 0.1-0.75 0.3-0.2 0.2-0.3 0.45-0.3 0.75v2.399c0 0.301 0.1 0.551 0.3 0.75 0.233 0.2 0.483 0.301 0.75 0.301 0.3 0 0.55-0.101 0.75-0.301 0.2-0.199 0.3-0.449 0.3-0.75v-2.4c0-0.3-0.1-0.55-0.3-0.75zm0 6.15c-0.2-0.199-0.45-0.3-0.75-0.3-0.267 0-0.517 0.101-0.75 0.3-0.2 0.233-0.3 0.483-0.3 0.75v2.45c0 0.267 0.1 0.517 0.3 0.75 0.233 0.2 0.483 0.3 0.75 0.3 0.3 0 0.55-0.1 0.75-0.3 0.2-0.233 0.3-0.483 0.3-0.75v-2.45c0-0.27-0.1-0.52-0.3-0.75z" clip-rule="evenodd" fill="#8F887B" fill-rule="evenodd"/>
	<linearGradient id="ap" x1="338.83" x2="334.98" y1="175.47" y2="175.47" gradientUnits="userSpaceOnUse">
		<stop stop-opacity=".5137" offset="0"/>
		<stop stop-opacity="0" offset=".4784"/>
	</linearGradient>
	<path d="m338.85 153.85v43.25h-3.85v-43.25h3.85zm-0.8 19.55c-0.2-0.233-0.45-0.351-0.75-0.351-0.267 0-0.517 0.117-0.75 0.351-0.2 0.199-0.3 0.449-0.3 0.75v2.399c0 0.3 0.1 0.55 0.3 0.75 0.233 0.2 0.483 0.3 0.75 0.3 0.3 0 0.55-0.1 0.75-0.3s0.3-0.45 0.3-0.75v-2.399c0-0.3-0.1-0.55-0.3-0.75zm0 6c-0.2-0.2-0.45-0.301-0.75-0.301-0.267 0-0.517 0.101-0.75 0.301-0.2 0.233-0.3 0.483-0.3 0.75v2.449c0 0.267 0.1 0.517 0.3 0.75 0.233 0.2 0.483 0.301 0.75 0.301 0.3 0 0.55-0.101 0.75-0.301 0.2-0.233 0.3-0.483 0.3-0.75v-2.449c0-0.27-0.1-0.52-0.3-0.75zm0 6.05c-0.2-0.2-0.45-0.3-0.75-0.3-0.267 0-0.517 0.1-0.75 0.3-0.2 0.2-0.3 0.45-0.3 0.75v2.399c0 0.301 0.1 0.551 0.3 0.75 0.233 0.2 0.483 0.301 0.75 0.301 0.3 0 0.55-0.101 0.75-0.301 0.2-0.199 0.3-0.449 0.3-0.75v-2.4c0-0.3-0.1-0.55-0.3-0.75zm0 6.15c-0.2-0.199-0.45-0.3-0.75-0.3-0.267 0-0.517 0.101-0.75 0.3-0.2 0.233-0.3 0.483-0.3 0.75v2.45c0 0.267 0.1 0.517 0.3 0.75 0.233 0.2 0.483 0.3 0.75 0.3 0.3 0 0.55-0.1 0.75-0.3 0.2-0.233 0.3-0.483 0.3-0.75v-2.45c0-0.27-0.1-0.52-0.3-0.75z" clip-rule="evenodd" fill="url(#ap)" fill-rule="evenodd"/>
	<linearGradient id="ae" x1="334.95" x2="337.05" y1="175.47" y2="175.47" gradientUnits="userSpaceOnUse">
		<stop stop-opacity=".5137" offset=".1412"/>
		<stop stop-opacity="0" offset=".7373"/>
	</linearGradient>
	<path d="m338.85 153.85v43.25h-3.85v-43.25h3.85zm-0.8 19.55c-0.2-0.233-0.45-0.351-0.75-0.351-0.267 0-0.517 0.117-0.75 0.351-0.2 0.199-0.3 0.449-0.3 0.75v2.399c0 0.3 0.1 0.55 0.3 0.75 0.233 0.2 0.483 0.3 0.75 0.3 0.3 0 0.55-0.1 0.75-0.3s0.3-0.45 0.3-0.75v-2.399c0-0.3-0.1-0.55-0.3-0.75zm0 6c-0.2-0.2-0.45-0.301-0.75-0.301-0.267 0-0.517 0.101-0.75 0.301-0.2 0.233-0.3 0.483-0.3 0.75v2.449c0 0.267 0.1 0.517 0.3 0.75 0.233 0.2 0.483 0.301 0.75 0.301 0.3 0 0.55-0.101 0.75-0.301 0.2-0.233 0.3-0.483 0.3-0.75v-2.449c0-0.27-0.1-0.52-0.3-0.75zm0 6.05c-0.2-0.2-0.45-0.3-0.75-0.3-0.267 0-0.517 0.1-0.75 0.3-0.2 0.2-0.3 0.45-0.3 0.75v2.399c0 0.301 0.1 0.551 0.3 0.75 0.233 0.2 0.483 0.301 0.75 0.301 0.3 0 0.55-0.101 0.75-0.301 0.2-0.199 0.3-0.449 0.3-0.75v-2.4c0-0.3-0.1-0.55-0.3-0.75zm0 6.15c-0.2-0.199-0.45-0.3-0.75-0.3-0.267 0-0.517 0.101-0.75 0.3-0.2 0.233-0.3 0.483-0.3 0.75v2.45c0 0.267 0.1 0.517 0.3 0.75 0.233 0.2 0.483 0.3 0.75 0.3 0.3 0 0.55-0.1 0.75-0.3 0.2-0.233 0.3-0.483 0.3-0.75v-2.45c0-0.27-0.1-0.52-0.3-0.75z" clip-rule="evenodd" fill="url(#ae)" fill-rule="evenodd"/>
	<rect x="334.6" y="153.85" width="1.15" height="43.5" clip-rule="evenodd" fill="#A59E8E" fill-rule="evenodd"/>
	<rect x="339.1" y="153.85" width=".551" height="43.25" clip-rule="evenodd" fill="#D5CCB7" fill-rule="evenodd"/>
	<rect x="338.85" y="153.85" width=".7" height="43.551" clip-rule="evenodd" fill="#A59E8E" fill-rule="evenodd"/>
		<use transform="matrix(1 0 0 -1 334.4 155.45)" y="-15.4" width="3.3" height="15.4" enable-background="new" opacity=".5703" xlink:href="#ac"/>
		<use transform="matrix(1 0 0 -1 335.6 168.05)" y="-5.7" width="3.3" height="5.7" enable-background="new" opacity=".5703" xlink:href="#ab"/>
	<path d="m338.7 166.45l-1.15 2.1-2 2.25 0.55-21.75 7.45 5.8c-1.899 3.7-3.1 5.867-3.6 6.5-0.3 0.4-0.601 1.367-0.9 2.9-0.13 0.77-0.25 1.5-0.35 2.2z" clip-rule="evenodd" fill="#57534B" fill-rule="evenodd"/>
	<path d="m343.1 157.98l2.5 2.575c-0.466 0.066-1.017 0.3-1.649 0.7-1.3 0.866-2.417 2.25-3.351 4.15-0.633 1.267-1.1 2.55-1.399 3.85-0.134 0.667-0.217 1.2-0.25 1.6l-3.4-0.05c0.267-1.399 0.7-2.916 1.3-4.55 1.167-3.3 2.517-5.517 4.051-6.65 1.02-0.75 1.75-1.3 2.2-1.63l-0.399-0.425c0.666-0.066 0.983-0.066 0.95 0-0.04 0.03-0.22 0.17-0.55 0.42z" clip-rule="evenodd" fill="#787367" fill-rule="evenodd"/>
	<path d="m346.8 153.7l-1.2 6.85c-1.333-0.434-2.566-0.649-3.699-0.649-0.534 0-0.934 0.017-1.2 0.05l-0.3 0.05 0.25-5.6 6.15-0.7z" clip-rule="evenodd" fill="#8F887B" fill-rule="evenodd"/>
	<path d="m336.3 154.95l3.4 1.95v2.55c-0.167 0.3-0.617 0.899-1.351 1.8l-2.05 2.9v-9.2z" clip-rule="evenodd" fill="#47443D" fill-rule="evenodd"/>
		<linearGradient id="af" x1="126.14" x2="361.39" y1="130.91" y2="130.91" gradientTransform="matrix(.9971 .0767 -.0767 .9971 .00011422 -.00036895)" gradientUnits="userSpaceOnUse">
		<stop stop-color="#E9D382" offset="0"/>
		<stop stop-color="#CDB96F" offset="1"/>
	</linearGradient>
	<path d="m354 150.15l-3.5 2.5h-134.1c-6.7 0-23.583 0.6-50.65 1.8l-0.5-0.05c-2.6-0.067-6.5-0.034-11.7 0.1-5.233 0.134-9.15 0.167-11.75 0.1-12.733-0.399-22.267-0.666-28.6-0.8-11.034-0.2-20.567-0.066-28.6 0.4-2.4 0.1-4.667 0.633-6.8 1.6-3-0.934-5.933-1.899-8.8-2.899 7.3-3.334 13.583-6.134 18.85-8.4l7.85-3.4c25-0.433 43.633-0.883 55.9-1.35s61.917-0.7 148.95-0.7h40.75l12.7 11.1z" clip-rule="evenodd" fill="url(#af)" fill-rule="evenodd"/>
	<g clip-rule="evenodd" fill="#C2AA5A" fill-rule="evenodd">
		<path d="m310.1 150.7c7.101-0.033 12.7-0.167 16.801-0.4 2.5-0.133 7.017-0.383 13.55-0.75 2.366-0.1 4.85-0.233 7.45-0.399 0.966-0.067 2.566-0.117 4.8-0.15l0.6 0.55c-4.767 0.033-11.45 0.351-20.05 0.95-3.6 0.267-21.116 0.566-52.55 0.9-29.867 0.333-49.167 0.466-57.9 0.399-13.367-0.033-24.1-0.083-32.2-0.149-14.833-0.134-24.684-0.351-29.55-0.65-11.6-0.7-21.216-1.05-28.85-1.05-20.233-0.2-32.233-0.233-36-0.101-2.167 0.067-4.833 0.284-8 0.65-3.534 0.366-5.667 0.566-6.4 0.6-4.233 0.534-8.117 0.95-11.65 1.25l2.05-0.899c1.566-0.2 3.7-0.5 6.4-0.9 2.267-0.3 4.267-0.467 6-0.5 1.6-0.033 3.933-0.166 7-0.399 2.7-0.2 6.117-0.301 10.25-0.301 2.566 0 5.767-0.066 9.6-0.199 2.4-0.101 5.983-0.067 10.75 0.1 4.466 0.134 8.816 0.217 13.05 0.25 4.967 0 9.383 0.05 13.25 0.15 1.933 0.033 8.883 0.283 20.85 0.75 9.167 0.333 16.75 0.5 22.75 0.5 10.233 0 18.267-0.034 24.1-0.101 50.9 0 82.2-0.03 93.9-0.1z"/>
		<path d="m346.1 146.2c-6.466-0.134-11.383-0.2-14.75-0.2h-15c-1.333 0.033-2.966 0.15-4.899 0.35-2.4 0.2-4.417 0.351-6.05 0.45-1.634 0.101-15.567 0.184-41.801 0.25-26.133 0.101-40.366 0.217-42.699 0.351-6.034 0.333-9.584 0.517-10.65 0.55-5.633 0.166-13.983 0.2-25.05 0.1-13.467-0.066-22.417-0.133-26.85-0.2-6.667-0.033-14.233-0.149-22.7-0.35-13.367-0.333-30.483-0.566-51.35-0.7l-1.85 0.05 1.6-0.699 15.6-0.051c11.867 0.034 25.833 0.25 41.9 0.65 17.3 0.434 26.517 0.65 27.65 0.65 3.667 0.033 9.683 0.1 18.05 0.199 7.633 0.067 14.05 0.034 19.25-0.1 5.533-0.167 23.05-0.434 52.55-0.8 27.533-0.334 43.4-0.5 47.601-0.5 2.166 0 4.116-0.184 5.85-0.55 1.7-0.4 3.083-0.601 4.15-0.601 0.3 0 1.199 0.033 2.699 0.101 1.534 0.066 5.334 0.1 11.4 0.1 4.434 0 8.033 0.05 10.8 0.15 1.634 0.066 4.084 0.166 7.351 0.3l0.649 0.55-3.45-0.05z"/>
		<path d="m82.15 157.05l-1.95-0.55c12.667-0.634 22.066-0.833 28.2-0.6 1.233 0.1 7.383 0.166 18.45 0.199-6.533 0.301-11.267 0.534-14.2 0.7l-30.5 0.25z"/>
		<path d="m331.7 143.2c2.066 0.233 6.767 0.35 14.1 0.35h0.65l1.05 0.9h-9.85c-6.134 0-9.684-0.066-10.65-0.2-4.4-0.6-7.95-0.9-10.65-0.9-1.767-0.033-3.05-0.05-3.85-0.05-1.333 0-2.134 0.117-2.4 0.351-0.079 0.07-1.029 0.154-2.85 0.25-0.187 0.192-0.386 0.343-0.6 0.449-0.567 0.301-2.351 0.567-5.351 0.801-2.652 0.193-17.377 0.294-44.175 0.3-15.359 0.366-25.651 0.55-30.875 0.55-13.366 0.033-24.633 0.066-33.8 0.1-17.367 0-27.833-0.033-31.4-0.1-5.867-0.134-10.783-0.2-14.75-0.2h-11.9c-4.566 0-12.566-0.2-24-0.6-11.4-0.434-17.9-0.65-19.5-0.65h-3.15l0.1-0.05 2.05-0.85c5.267 0 12.383 0.133 21.35 0.399 7.667 0.233 14.717 0.533 21.15 0.9 2.9 0.133 6.184 0.166 9.85 0.1 3-0.066 4.483-0.149 4.45-0.25 0-0.033 2.9-0.017 8.7 0.05 22.467 0.267 38.15 0.434 47.05 0.5 21.818 0.06 40.044 0.093 54.675 0.101 4.629-0.12 9.721-0.254 15.275-0.4 18.22-0.489 29.836-0.872 34.85-1.149 0.104-0.103 0.204-0.219 0.3-0.351 0.434-0.166 0.601-0.434 0.5-0.8 0.334-0.233 2.05-0.35 5.15-0.35 1.767 0 3.666-0.067 5.7-0.2 1.066-0.101 3.133-0.033 6.199 0.2 2.73 0.2 4.93 0.47 6.6 0.8z"/>
		<path d="m316.95 139.95c3.033 0.033 6.8 0.267 11.3 0.7 5.066 0.466 10.384 0.783 15.95 0.949l0.6 0.5c-7.733-0.267-14.616-0.6-20.649-1-3.767-0.233-6.65-0.333-8.65-0.3-2.233 0.101-4.35 0.167-6.35 0.2-63.434 2.1-97.65 3.15-102.65 3.15-3.533 0-12.2-0.101-26-0.301-5.167-0.066-11.933-0.216-20.3-0.449-8.367-0.2-13.417-0.317-15.15-0.351-4.8-0.166-9.6-0.25-14.4-0.25l-38.45-0.15 1.4-0.601 3.55 0.05c4.5 0.067 8.85 0.15 13.05 0.25 2.767 0.034 5.933 0.017 9.5-0.05 2.933-0.066 5.383-0.149 7.35-0.25 1.5-0.033 4.267-0.017 8.3 0.05 1.2 0.034 3.117 0.134 5.75 0.301 2 0.133 8.85 0.267 20.55 0.399 5.833 0.066 15.533 0.334 29.1 0.8 6.4 0.2 12.8 0.017 19.2-0.55 7.399-0.633 26.1-1.35 56.1-2.149 27.53-0.7 44.5-1.02 50.9-0.95z"/>
		<path d="m345.45 148.15c-2.8 0-6.884 0.216-12.25 0.649-5.367 0.434-9.834 0.65-13.4 0.65l-99.5-0.2c-10.433 0.767-19.1 1.116-26 1.05-6.2-0.033-13.1-0.133-20.7-0.3-8.833-0.2-14.167-0.417-16-0.65-2.5-0.3-10.85-0.533-25.05-0.699-5.867-0.067-18.716-0.101-38.55-0.101-3.4 0-5.95 0.05-7.65 0.15-0.934 0.066-2.55 0.217-4.85 0.45-0.233 0.033-2.317 0.333-6.25 0.899l2.4-1.05c1.467-0.233 2.917-0.5 4.35-0.8 1.167-0.167 2.983-0.25 5.45-0.25h22.85c3.567 0 8.284-0.017 14.15-0.05 5.8 0.033 13.5 0.216 23.1 0.55 7.534 0.267 16.417 0.633 26.65 1.1 7.7 0.267 14.4 0.3 20.1 0.101 4.3-0.167 8.534-0.351 12.7-0.551 2.967-0.166 6.033-0.283 9.2-0.35 3.366-0.066 19.166-0.083 47.399-0.05 30.034 0.066 46.784 0.083 50.25 0.05 4.667-0.033 7.15-0.066 7.45-0.1 1.167-0.134 3.483-0.267 6.95-0.4 9.634-0.366 17.283-0.55 22.95-0.55l0.55 0.45h-6.3z"/>
		<path d="m312.1 139.05h14.051c-2 0.134-3.601 0.2-4.801 0.2-7.5 0.267-12.399 0.4-14.699 0.4l-81.65-0.1c-1.533 0-5.566 0.25-12.1 0.75-6.534 0.467-11.584 0.7-15.15 0.7-20.5-0.233-34.2-0.35-41.1-0.35-21.3 0-35.083 0.05-41.35 0.149-4.233 0.134-7.033 0.233-8.4 0.3-2.133 0.034-4.566 0.017-7.3-0.05 24.033-0.5 40.45-0.899 49.25-1.2 7.033 0.101 17.267 0.25 30.7 0.45 10.567 0.101 17.784-0.017 21.65-0.35 4.133-0.367 9.133-0.65 15-0.851l93.899-0.05c0.33 0.03 1 0.03 2 0z"/>
		<path d="m337 140.65l-2.5-0.2 1.85-0.3c1.634-0.233 3.467-0.434 5.5-0.601l0.601 0.55-1.351 0.15 1.601 0.05 0.75 0.601c-2.27-0.03-4.42-0.12-6.45-0.25z"/>
		<path d="m103.45 155.3c-4.434-0.133-7.367-0.2-8.8-0.2-0.267 0-5.85 0.233-16.75 0.7l-1.95-0.6c4.533-0.4 7.267-0.617 8.2-0.65 2.467-0.166 5.867-0.267 10.2-0.3 3.633-0.033 6.717 0.033 9.25 0.2 2.767 0.2 5.933 0.3 9.5 0.3 3.967 0 7.117-0.05 9.45-0.15 2.367-0.1 4.65-0.149 6.85-0.149h13.45l16.7 0.05c-5.966 0.267-10.333 0.483-13.1 0.65-16.6 0.233-27.3 0.35-32.1 0.35-2.83 0-6.47-0.07-10.9-0.2z"/>
		<path d="m316.35 152.5c6.334 0.033 11.684-0.083 16.051-0.35 4.6-0.301 9.783-0.45 15.55-0.45h3.95l-1.2 0.85-49.25 0.101c2.37-0.17 7.33-0.22 14.9-0.15z"/>
		<path d="m155.4 152.65c7.567 0 17.817 0.133 30.75 0.399l7.8 0.25-12.45 0.5c-9.267-0.233-17.967-0.35-26.1-0.35-3.233 0-10.15-0.134-20.75-0.4-11.033-0.3-17.483-0.45-19.35-0.45-4.767-0.066-13.733 0.051-26.9 0.351-1.066 0.033-3.117 0.217-6.15 0.55-4.567 0.467-7.517 0.767-8.85 0.9l-1.65-0.551 2.2-0.199c0.2 0 4.25-0.467 12.15-1.4 2.167-0.233 7.316-0.35 15.45-0.35 8.5 0 16.4 0.1 23.7 0.3 4.033 0.1 9.183 0.25 15.45 0.45 3.3 0.1 5.316 0.133 6.05 0.1 1.8-0.07 4.68-0.1 8.65-0.1z"/>
	</g>
	<linearGradient id="ag" x1="69.4" x2="354" y1="151.5" y2="151.5" gradientUnits="userSpaceOnUse">
		<stop stop-color="#E9D382" offset="0"/>
		<stop stop-color="#FEF3CA" offset=".4235"/>
		<stop stop-color="#CDB96F" offset="1"/>
	</linearGradient>
	<path d="m337.95 152.4c-74.9-0.934-123.52-1.4-145.85-1.4s-59.883 0.917-112.65 2.75l-10.05-2.2c68.3-1.5 109.23-2.25 122.8-2.25l139.25-0.05c8.767 0 16.283 0.384 22.55 1.15l-16.05 2z" clip-rule="evenodd" fill="url(#ag)" fill-rule="evenodd"/>
	<path d="m355.1 155.8h-159.15c-22.333 0-64.417 0.5-126.25 1.5l-0.3-4.6c68.2-1.134 109.1-1.7 122.7-1.7s60.05-0.2 139.35-0.6h23l0.65 5.4z" clip-rule="evenodd" fill="#A68A44" fill-rule="evenodd"/>
		<use transform="matrix(1 0 0 -1 69.4 150.4)" y="-6.9" width="285.7" height="6.9" enable-background="new" opacity=".0781" xlink:href="#x"/>
		<use transform="matrix(1 0 0 -1 10 28)" x="16383" y="16383" width="-32766" height="-32766" xlink:href="#ad"/>
</svg>
