<svg width="212" height="221" viewBox="0 0 212 221" fill="none" xmlns="http://www.w3.org/2000/svg">
<path d="M173.693 11.2012C192.075 22.3079 205.408 41.3659 210.069 61.3074C214.729 81.2489 210.716 102.074 200.619 117.219C190.522 132.365 174.47 141.704 163.596 157.355C152.722 173.005 146.897 194.966 132.657 207.966C118.418 221.092 95.5048 225.257 79.7119 216.043C64.0483 206.83 55.3752 184.238 42.3007 166.947C29.0967 149.53 11.362 137.54 3.98331 120.88C-3.39537 104.22 -0.288561 83.1421 11.362 69.0063C23.0125 54.9968 43.3363 47.9289 61.071 36.5698C78.8057 25.0845 93.822 9.43425 112.981 3.12364C132.139 -3.06075 155.44 0.0945549 173.693 11.2012Z" fill="black"/>
</svg>
