<svg width="125" height="107" viewBox="0 0 125 107" fill="none" xmlns="http://www.w3.org/2000/svg">
<path d="M71.075 80.1537C71.9928 80.7877 73.1015 81.1864 74.273 81.3039C75.4444 81.4213 76.6307 81.2526 77.6949 80.8173C78.759 80.382 79.6576 79.6978 80.2867 78.8439C80.9158 77.9899 81.2497 77.0009 81.25 75.9914V31.0139C81.2497 30.0043 80.9158 29.0154 80.2867 28.1614C79.6576 27.3074 78.759 26.6232 77.6949 26.1879C76.6307 25.7526 75.4444 25.5839 74.273 25.7014C73.1015 25.8188 71.9928 26.2176 71.075 26.8516L41.5563 47.2565C40.468 48.0087 39.5903 48.9599 38.9872 50.0402C38.3842 51.1205 38.0712 52.3026 38.0712 53.4999C38.0712 54.6973 38.3842 55.8794 38.9872 56.9597C39.5903 58.04 40.468 58.9912 41.5563 59.7434L71.075 80.1537ZM75 31.0139V75.9914L45.4875 55.5811C45.1248 55.3304 44.8322 55.0133 44.6312 54.6532C44.4302 54.2931 44.3258 53.8991 44.3258 53.4999C44.3258 53.1008 44.4302 52.7068 44.6312 52.3467C44.8322 51.9866 45.1248 51.6695 45.4875 51.4188L75 31.0139Z" fill="white"/>
</svg>
