<svg width="964" height="648" viewBox="0 0 964 648" fill="none" xmlns="http://www.w3.org/2000/svg">
<path fill-rule="evenodd" clip-rule="evenodd" d="M435.818 0.604681C509.615 2.49104 588.584 12.1547 642.445 48.829C693.87 83.8443 669.661 150.228 714.004 190.022C782.911 251.861 962.497 257.858 963.992 337.392C965.375 410.957 789.644 407.655 719.086 460.463C654.714 508.641 657.113 596.279 575.66 628.033C492.194 660.573 386.07 648.82 297.233 624.922C211.427 601.839 146.12 552.053 92.7046 498.11C42.7212 447.633 -12.9746 388.589 2.69171 327.47C18.1688 267.09 130.144 248.262 170.576 194.314C206.479 146.409 166.663 76.6983 219.623 38.0211C272.933 -0.91224 360.249 -1.32696 435.818 0.604681Z" fill="#DA3636"/>
</svg>
