<svg width="1075" height="719" viewBox="0 0 1075 719" fill="none" xmlns="http://www.w3.org/2000/svg">
<path d="M442.742 161.761C375.164 158.834 280.003 151.225 186.911 180.491C93.8183 209.756 2.10522 275.896 0.036499 343.207C-2.03223 410.517 84.1642 478.999 153.121 544.553C221.389 610.108 272.417 672.151 342.064 682.101C412.401 692.637 501.355 649.909 596.516 659.274C692.367 669.225 793.734 730.097 857.864 717.22C921.305 703.758 946.819 616.547 962.679 541.627C978.539 466.707 984.056 404.664 1012.33 327.989C1041.29 251.898 1091.63 161.761 1069.56 95.6206C1048.19 29.4806 953.715 -12.0765 862.001 3.14158C769.599 18.3596 679.954 90.3528 615.135 126.642C550.315 163.517 510.32 164.687 442.742 161.761Z" fill="#DA3636"/>
</svg>
