<svg width="321" height="201" viewBox="0 0 321 201" fill="none" xmlns="http://www.w3.org/2000/svg">
<path d="M62.8512 42.9847C37.0903 55.4028 8.85814 78.0633 1.87274 104.072C-5.11266 130.08 9.42911 159.552 34.0976 172.301C58.9068 184.782 94.0533 180.464 123.717 183.355C153.101 186.132 176.792 196.195 210.944 199.626C244.816 202.941 289.009 199.893 308.26 178.763C327.582 157.825 322.033 118.996 306.788 90.8669C291.332 62.8143 266.039 45.7294 245.443 30.4117C224.777 14.9021 208.807 1.15953 191.203 0.613964C173.389 0.145028 154.22 12.9883 133.166 20.6513C111.832 28.1991 88.612 30.5666 62.8512 42.9847Z" fill="#DA3636"/>
</svg>
