<svg width="125" height="107" viewBox="0 0 125 107" fill="none" xmlns="http://www.w3.org/2000/svg">
<path d="M53.9251 26.8463C53.0072 26.2123 51.8985 25.8136 50.7271 25.6961C49.5557 25.5787 48.3693 25.7474 47.3052 26.1827C46.241 26.618 45.3425 27.3022 44.7134 28.1561C44.0843 29.0101 43.7503 29.9991 43.7501 31.0086L43.7501 75.9861C43.7503 76.9957 44.0843 77.9846 44.7134 78.8386C45.3425 79.6926 46.241 80.3768 47.3052 80.8121C48.3693 81.2474 49.5557 81.4161 50.7271 81.2986C51.8985 81.1812 53.0072 80.7824 53.9251 80.1484L83.4438 59.7435C84.532 58.9913 85.4098 58.0401 86.0128 56.9598C86.6159 55.8795 86.9288 54.6974 86.9288 53.5001C86.9288 52.3027 86.6159 51.1206 86.0128 50.0403C85.4098 48.96 84.532 48.0088 83.4438 47.2566L53.9251 26.8463ZM50.0001 75.9861L50.0001 31.0086L79.5126 51.4189C79.8753 51.6696 80.1679 51.9867 80.3689 52.3468C80.5699 52.7069 80.6742 53.1009 80.6742 53.5001C80.6742 53.8992 80.5699 54.2932 80.3689 54.6533C80.1679 55.0134 79.8753 55.3305 79.5126 55.5812L50.0001 75.9861Z" fill="white"/>
</svg>
